<?xml version="1.0"?>
<svg xmlns="http://www.w3.org/2000/svg" xmlns:xlink="http://www.w3.org/1999/xlink" version="1.1" id="Capa_1" x="0px" y="0px" viewBox="0 0 51 51" style="enable-background:new 0 0 51 51;" xml:space="preserve" width="512px" height="512px" class=""><g><g>
	<polygon points="45,0.5 0,0.5 0,43.5 5,43.5 5,6.5 45,6.5  " data-original="#000000" class="active-path" data-old_color="#CF0D1D" fill="#CD0D1D"/>
	<path d="M7,8.5v42h44v-42H7z M37.485,36.571c0.391,0.391,0.391,1.023,0,1.414c-0.391,0.391-1.023,0.391-1.414,0L29,30.914   l-7.071,7.071c-0.391,0.391-1.023,0.391-1.414,0c-0.391-0.391-0.391-1.023,0-1.414l7.071-7.071l-7.071-7.071   c-0.391-0.391-0.391-1.023,0-1.414c0.391-0.391,1.023-0.391,1.414,0L29,28.086l7.071-7.071c0.391-0.391,1.023-0.391,1.414,0   c0.391,0.391,0.391,1.023,0,1.414L30.414,29.5L37.485,36.571z" data-original="#000000" class="active-path" data-old_color="#CF0D1D" fill="#CD0D1D"/>
</g></g> </svg>
