<?xml version="1.0"?>
<svg xmlns="http://www.w3.org/2000/svg" xmlns:xlink="http://www.w3.org/1999/xlink" version="1.1" id="Capa_1" x="0px" y="0px" viewBox="0 0 187.741 187.741" style="enable-background:new 0 0 187.741 187.741;" xml:space="preserve" width="512px" height="512px" class=""><g><g>
	<g>
		<path d="M180.4,34.474C173.579,17.918,159.185,6.98,141.9,5.212c-1.893-0.193-3.825-0.292-5.745-0.292    c-17.246,0-33.357,7.91-43.988,21.381C81.537,12.83,65.426,4.92,48.18,4.92c-1.92,0-3.854,0.099-5.745,0.292    C25.15,6.978,10.756,17.918,3.934,34.474c-7.24,17.57-4.352,37.487,7.538,51.976l17.882,21.792    c0.674,0.821,1.654,1.248,2.64,1.248c0.763,0,1.527-0.253,2.169-0.775c1.458-1.195,1.669-3.345,0.473-4.803L16.755,82.121    C6.464,69.579,3.972,52.317,10.253,37.075c5.849-14.193,18.14-23.566,32.884-25.073c1.661-0.169,3.36-0.256,5.048-0.256    c16.565,0,31.944,8.322,41.138,22.258c0.631,0.959,1.702,1.534,2.848,1.534s2.217-0.575,2.848-1.534    c9.194-13.938,24.571-22.258,41.137-22.258c1.688,0,3.386,0.085,5.048,0.256c14.744,1.507,27.035,10.88,32.884,25.073    c6.281,15.242,3.789,32.503-6.502,45.046l-11.907,14.51c-1.196,1.456-0.985,3.606,0.473,4.803    c1.456,1.196,3.606,0.985,4.803-0.473l11.907-14.51C184.752,71.961,187.642,52.044,180.4,34.474z" data-original="#000000" class="active-path" data-old_color="#010101" fill="#FFFFFF"/>
	</g>
</g><g>
	<g>
		<path d="M125.045,139.342c-1.457-1.198-3.61-0.986-4.803,0.473l-28.076,34.214L64.094,139.82    c-1.195-1.459-3.347-1.671-4.803-0.473c-1.457,1.195-1.669,3.345-0.473,4.803l30.71,37.424c0.648,0.788,1.616,1.248,2.638,1.248    s1.99-0.459,2.635-1.248l30.715-37.429C126.714,142.689,126.502,140.538,125.045,139.342z" data-original="#000000" class="active-path" data-old_color="#010101" fill="#FFFFFF"/>
	</g>
</g><g>
	<g>
		<path d="M139.954,112.904H51.207c-1.884,0-3.413,1.529-3.413,3.413v23.893c0,1.884,1.529,3.413,3.413,3.413h88.747    c1.886,0,3.413-1.527,3.413-3.413v-23.893C143.367,114.433,141.838,112.904,139.954,112.904z M136.541,136.797h-81.92v-17.067    h81.92V136.797z" data-original="#000000" class="active-path" data-old_color="#010101" fill="#FFFFFF"/>
	</g>
</g><g>
	<g>
		<path d="M17.074,112.904H6.834c-1.884,0-3.413,1.529-3.413,3.413v23.893c0,1.884,1.529,3.413,3.413,3.413h10.24    c1.886,0,3.413-1.527,3.413-3.413v-23.893C20.487,114.433,18.958,112.904,17.074,112.904z M13.661,136.797h-3.413v-17.067h3.413    V136.797z" data-original="#000000" class="active-path" data-old_color="#010101" fill="#FFFFFF"/>
	</g>
</g><g>
	<g>
		<path d="M47.228,89.011h-9.107c-4.077,0-7.393,3.316-7.393,7.393v63.72c0,4.077,3.316,7.393,7.393,7.393h9.107    c4.077,0,7.393-3.316,7.393-7.393v-63.72C54.621,92.327,51.305,89.011,47.228,89.011z M47.794,160.124    c0,0.312-0.254,0.567-0.567,0.567h-9.107c-0.312,0-0.567-0.254-0.567-0.567v-63.72c0-0.312,0.254-0.567,0.567-0.567h9.107    c0.312,0,0.567,0.254,0.567,0.567V160.124z" data-original="#000000" class="active-path" data-old_color="#010101" fill="#FFFFFF"/>
	</g>
</g><g>
	<g>
		<path d="M30.797,102.666H20.419c-3.726,0-6.757,3.031-6.757,6.757v37.685c0,3.726,3.031,6.757,6.757,6.757h10.378    c3.726,0,6.757-3.031,6.757-6.757v-37.685C37.554,105.697,34.523,102.666,30.797,102.666z M30.727,147.041l-10.24,0.068    l-0.07-37.617l10.31-0.07V147.041z" data-original="#000000" class="active-path" data-old_color="#010101" fill="#FFFFFF"/>
	</g>
</g><g>
	<g>
		<path d="M184.327,112.904h-10.24c-1.884,0-3.413,1.529-3.413,3.413v23.893c0,1.884,1.529,3.413,3.413,3.413h10.24    c1.886,0,3.413-1.527,3.413-3.413v-23.893C187.741,114.433,186.212,112.904,184.327,112.904z M180.914,136.797h-3.413v-17.067    h3.413V136.797z" data-original="#000000" class="active-path" data-old_color="#010101" fill="#FFFFFF"/>
	</g>
</g><g>
	<g>
		<path d="M153.041,89.011h-9.107c-4.077,0-7.393,3.316-7.393,7.393v63.72c0,4.077,3.316,7.393,7.393,7.393h9.107    c4.077,0,7.393-3.316,7.393-7.393v-63.72C160.434,92.327,157.118,89.011,153.041,89.011z M153.607,160.124    c0,0.312-0.254,0.567-0.567,0.567h-9.107c-0.312,0-0.567-0.254-0.567-0.567v-63.72c0-0.312,0.254-0.567,0.567-0.567h9.107    c0.312,0,0.567,0.254,0.567,0.567V160.124z" data-original="#000000" class="active-path" data-old_color="#010101" fill="#FFFFFF"/>
	</g>
</g><g>
	<g>
		<path d="M170.744,102.666h-10.378c-3.726,0-6.757,3.031-6.757,6.757v37.685c0,3.726,3.031,6.757,6.757,6.757h10.378    c3.726,0,6.757-3.031,6.757-6.757v-37.685C177.501,105.697,174.47,102.666,170.744,102.666z M160.434,147.037l-0.07-37.547    l10.31-0.07l0.07,37.617H160.434z" data-original="#000000" class="active-path" data-old_color="#010101" fill="#FFFFFF"/>
	</g>
</g><g>
	<g>
		<path d="M95.581,112.904c-1.884,0-3.413,1.529-3.413,3.413v23.893c0,1.884,1.529,3.413,3.413,3.413    c1.886,0,3.413-1.527,3.413-3.413v-23.893C98.994,114.433,97.465,112.904,95.581,112.904z" data-original="#000000" class="active-path" data-old_color="#010101" fill="#FFFFFF"/>
	</g>
</g><g>
	<g>
		<path d="M78.514,112.904c-1.884,0-3.413,1.529-3.413,3.413v23.893c0,1.884,1.529,3.413,3.413,3.413    c1.886,0,3.413-1.527,3.413-3.413v-23.893C81.927,114.433,80.398,112.904,78.514,112.904z" data-original="#000000" class="active-path" data-old_color="#010101" fill="#FFFFFF"/>
	</g>
</g><g>
	<g>
		<path d="M112.647,112.904c-1.884,0-3.413,1.529-3.413,3.413v23.893c0,1.884,1.529,3.413,3.413,3.413    c1.886,0,3.413-1.527,3.413-3.413v-23.893C116.061,114.433,114.532,112.904,112.647,112.904z" data-original="#000000" class="active-path" data-old_color="#010101" fill="#FFFFFF"/>
	</g>
</g></g> </svg>
