<?xml version="1.0"?>
<svg xmlns="http://www.w3.org/2000/svg" xmlns:xlink="http://www.w3.org/1999/xlink" version="1.1" id="Layer_1" x="0px" y="0px" viewBox="0 0 512 512" style="enable-background:new 0 0 512 512;" xml:space="preserve" width="512px" height="512px" class=""><g><g>
	<g>
		<path d="M232.003,409.493l-30.934,12.568v57.404c0,13.7,11.106,24.807,24.807,24.807s24.807-11.106,24.807-24.807v-69.972H232.003    z" data-original="#000000" class="active-path" data-old_color="#FCFBFB" fill="#FFFFFF"/>
	</g>
</g><g>
	<g>
		<path d="M280.219,409.493h-18.827v69.972c0,13.7,11.106,24.807,24.807,24.807c13.701,0,24.807-11.106,24.807-24.807v-57.464    L280.219,409.493z" data-original="#000000" class="active-path" data-old_color="#FCFBFB" fill="#FFFFFF"/>
	</g>
</g><g>
	<g>
		<path d="M361.043,169.902l-35.849-53.829c-5.467-8.21-14.677-13.141-24.539-13.141h-89.119c-9.842,0-19.034,4.911-24.507,13.092    l-36.038,53.879l-32.854,30.436h56.146l26.774-36.709v0.15c0.023-0.088,0.05-0.173,0.074-0.261    c6.636-24.215,28.849-41.925,54.93-41.925c26.06,0,48.417,17.723,54.999,42.163l26.69,36.581h56.146L361.043,169.902z" data-original="#000000" class="active-path" data-old_color="#FCFBFB" fill="#FFFFFF"/>
	</g>
</g><g>
	<g>
		<circle cx="256.034" cy="42.844" r="42.844" data-original="#000000" class="active-path" data-old_color="#FCFBFB" fill="#FFFFFF"/>
	</g>
</g><g>
	<g>
		<path d="M472.844,215.028H299.771c-10.424,12.469-26.143,20.484-43.708,20.484c-17.56,0-33.28-8.011-43.708-20.484H39.153    c-10.074,0-18.24,8.166-18.24,18.24c0,10.073,8.166,18.24,18.24,18.24h40.345c0.835,2.475,2.179,4.822,4.069,6.863    c7.162,7.73,19.232,8.191,26.961,1.03l8.52-7.893h84.458c0,11.146,0,88.725,0,101.096l-66.329,26.949    c-7.677,3.119-13.157,10.018-14.478,18.187c-0.011,0.07-0.028,0.138-0.039,0.209c-1.583,10.376-11.672,76.518-13.234,86.755    c-2.185,14.321,8.884,27.296,23.475,27.296c11.516,0,21.626-8.406,23.416-20.143l11.202-73.432l61.359-24.93h54.469    c6.889,2.799,50.448,20.497,61.359,24.93c1.148,7.525,9.497,62.252,11.203,73.432c1.963,12.873,14.02,21.853,27.022,19.869    c12.949-1.976,21.844-14.073,19.869-27.022l-13.234-86.755c-1.262-8.271-6.783-15.253-14.518-18.396    c-7.607-3.091-59.489-24.171-66.854-27.163c0-12.353,0-89.749,0-100.882h84.798l8.52,7.893c7.727,7.16,19.798,6.7,26.961-1.03    c1.89-2.041,3.234-4.387,4.069-6.863h40.306c10.074,0,18.24-8.166,18.24-18.24S482.919,215.028,472.844,215.028z" data-original="#000000" class="active-path" data-old_color="#FCFBFB" fill="#FFFFFF"/>
	</g>
</g><g>
	<g>
		<circle cx="256.067" cy="178.555" r="40.961" data-original="#000000" class="active-path" data-old_color="#FCFBFB" fill="#FFFFFF"/>
	</g>
</g></g> </svg>
